<?xml version="1.0" encoding="iso-8859-1"?>
<!-- Uploaded to: SVG Repo, www.svgrepo.com, Generator: SVG Repo Mixer Tools -->
<!DOCTYPE svg PUBLIC "-//W3C//DTD SVG 1.1//EN" "http://www.w3.org/Graphics/SVG/1.1/DTD/svg11.dtd">
<svg fill="#FFFFFF" version="1.1" id="Capa_1" xmlns="http://www.w3.org/2000/svg" xmlns:xlink="http://www.w3.org/1999/xlink" 
	 width="800px" height="800px" viewBox="0 0 151.954 151.954"
	 xml:space="preserve">
<g>
	<g id="EBUq0a_1_">
		<g>
			<g>
				<path d="M9.974,51.293c-0.259-0.054-0.452-0.688-0.609-1.077C8.752,48.665,7.65,47.486,6.5,46.332
					c-0.14-0.14-0.307-0.287-0.482-0.363c-0.516-0.218-0.912-0.417-1.493,0.15c-0.817,0.8-1.874,1.368-2.856,1.98
					c-0.17,0.104-0.646,0.025-0.731-0.119c-0.132-0.208-0.068-0.562-0.023-0.838c0.137-0.736,0.807-1.066,1.264-1.668
					c-0.03-0.063-0.104-0.203-0.17-0.337c0.482-0.224,1.183-0.308,0.597-1.097c-0.046-0.063,0-0.198,0.015-0.297
					c0.267-2.164,0.541-4.332,0.797-6.5c0.061-0.521-0.099-0.938-0.683-1.097c-0.482-0.134-0.452-0.609-0.541-0.978
					c-0.056-0.234-0.071-0.48-0.12-0.787c0.163,0.053,0.302,0.094,0.571,0.183c-0.206-0.358-0.353-0.64-0.536-0.894
					C1.493,32.812,0.765,32.021,0.27,31.1C-0.015,30.564,0.036,29.838,0,29.193c-0.01-0.163,0.224-0.475,0.343-0.475
					c0.183,0.005,0.49,0.183,0.531,0.343c0.381,1.442,1.473,1.851,2.772,2.097c0.665,0.125,1.29,0.452,1.95,0.691
					c0.437-1.127,1.584-1.31,2.447-1.861c0.609-0.392,1.249-0.666,1.691-1.315c0.348-0.505,0.899-0.899,1.43-1.229
					c0.457-0.279,0.551-0.577,0.447-1.064c-0.084-0.406-0.071-0.838-0.114-1.429c0.614,0.279,1.135,0.432,1.534,0.731
					c0.371,0.282,0.594,0.183,0.942,0.021c0.993-0.457,2.069-0.751,3.011-1.295c1.267-0.726,2.699-0.259,3.994-0.711
					c0.482-0.167,1.054-0.124,1.584-0.119c0.812,0.005,1.551-0.114,2.222-0.64c1.285-1.014,2.829-0.983,4.357-0.947
					c0.713,0.015,1.419,0.035,2.133,0.059c0.099,0.005,0.269,0,0.289,0.051c0.333,0.812,1.14,0.655,1.765,0.878
					c0.15,0.054,0.389,0.234,0.374,0.312c-0.16,0.817,0.556,0.868,0.982,1.071c0.729,0.348,1.528,0.551,2.283,0.858
					c0.838,0.343,1.643,0.675,2.231,1.488c0.374,0.513,1.112,0.759,1.679,1.143c1.343,0.917,2.356,2.069,3.046,3.587
					c0.267,0.589,1.145,0.886,1.732,1.338c1.285,0.993,2.554,2.005,3.849,2.988c0.604,0.464,1.285,0.823,1.861,1.305
					c0.922,0.77,2.084,0.802,3.141,1.17c0.904,0.317,1.757,0.792,2.664,1.092c0.835,0.277,1.716,0.421,2.584,0.604
					c0.622,0.135,1.257,0.233,2.021,0.378c-0.952,0.921-1.808,1.442-3.017,1.358c0.224,0.14,0.442,0.302,0.678,0.426
					c1.871,0.998,3.728,2.039,5.637,2.963c0.785,0.381,1.678,0.645,2.542,0.734c2.876,0.302,5.761,0.498,8.648,0.739
					c0.198,0.015,0.391,0.088,0.591,0.109c0.615,0.061,8.534-0.068,10.382-0.162c2.793-0.145,5.591-0.27,8.378-0.229
					c1.498,0.025,3.027,0.322,4.494,0.67c1.971,0.465,3.9,1.092,5.845,1.666c1.097,0.322,2.169,0.165,3.22-0.163
					c0.437-0.14,0.716-0.416,0.711-1.008c-0.01-1.254,0.741-2.257,1.438-3.204c0.822-1.122,1.67-2.293,2.747-3.146
					c1.447-1.148,2.812-2.699,4.824-2.788c3.214-0.145,6.357,0.307,9.277,1.78c0.63,0.317,1.157,0.239,1.722-0.043
					c0.319,0.767,0.862,1.26,1.67,1.438c0.63,0.135,1.265,0.269,1.895,0.411c0.07,0.016,0.142,0.061,0.178,0.114
					c0.686,0.914,1.478,1.638,2.676,1.851c1.203,0.213,2.128,0.929,3.026,1.762c0.69,0.635,1.636,0.982,2.483,1.473
					c-0.437,0.31-0.898,0.645-1.371,0.972c-0.381-0.142-0.777-0.282-1.315-0.475c0.99,1.336,1.879,2.534,2.804,3.786
					c-1.066,0.625-0.087,0.987,0.183,1.315c0.355,0.437,0.914,0.708,1.376,1.066c0.325,0.256,0.624,0.546,0.995,0.869
					c-0.27,0.188-0.427,0.297-0.6,0.411c0.188,0.312,0.355,0.592,0.574,0.962c-0.314,0.062-0.579,0.109-1.056,0.203
					c0.685,1.044,1.34,2.037,1.985,3.037c0.218,0.333,0.421,0.675,0.629,1.013c0.478,0.774,1.046,1.514,1.417,2.336
					c0.289,0.655,0.355,1.414,0.503,2.13c0.284,1.427,0.614,2.856,0.056,4.232c-0.3-0.904-0.619-1.841-0.944-2.775
					c-0.005-0.021-0.183,0.02-0.411,0.051c0.365,2.188,0.787,4.347,1.066,6.525c0.248,1.912,0.37,3.841,0.492,5.771
					c0.081,1.147-0.071,2.326,0.132,3.443c0.208,1.157,0.741,2.244,1.092,3.382c0.132,0.416,0.071,0.894,0.224,1.3
					c0.157,0.406,0.452,0.771,0.716,1.132c0.198,0.27,0.468,0.473,0.655,0.736c0.122,0.163,0.147,0.396,0.219,0.59
					c-0.057,0.03-0.117,0.061-0.178,0.091c-0.355-0.376-0.711-0.757-1.066-1.138c-0.057,0.031-0.107,0.062-0.158,0.097
					c0.706,1.458,1.412,2.931,2.118,4.388c-0.102,0.056-0.193,0.117-0.295,0.178c-2.285-1.722-4.128-3.885-5.986-6.078
					c0.386,1.767,0.771,3.529,1.147,5.235c0.081,0.051-0.016,0.015-0.082-0.051c-0.091-0.081-0.162-0.188-0.35-0.224
					c0.137,0.325,0.264,0.64,0.4,0.96c-0.04,0.046-0.086,0.076-0.127,0.116c-0.208-0.172-0.416-0.35-0.619-0.527
					c-0.061,0.081-0.132,0.172-0.208,0.264c-0.097-0.111-0.238-0.213-0.284-0.34c-0.371-1.011-0.747-1.996-1.361-2.931
					c-0.478-0.726-0.568-1.706-0.843-2.569c-0.548-1.706-0.965-3.473-1.681-5.104c-0.924-2.097-1.249-4.316-1.768-6.505
					c-0.188-0.771-0.822-1.503-1.386-2.122c-1.097-1.181-2.29-2.268-3.443-3.39c-0.213-0.208-0.432-0.406-0.706-0.66
					c-0.096,0.287-0.121,0.525-0.243,0.695c-0.233,0.341-0.538,0.485-0.843,0.063c-0.27-0.378-0.508-0.779-0.782-1.155
					c-0.427-0.571-0.879-1.132-1.33-1.711c-0.727,0.817-0.818,0.767-1.417,0.033c-0.6-0.734-1.315-1.374-1.98-2.054
					c-0.355-0.361-0.757-0.686-1.057-1.082c-0.279-0.371-0.446-0.724-1.061-0.525c-0.219,0.068-0.65-0.303-0.889-0.557
					c-0.508-0.561-0.854-1.305-1.772-1.353c-0.173-0.01-0.351-0.269-0.482-0.447c-0.604-0.795-1.103-1.633-1.925-2.308
					c-1.057-0.868-1.858-2.043-2.782-3.072c-0.899-1.006-2.021-1.681-3.255-2.217c-0.62-0.264-1.179-0.681-1.768-1.013
					c-0.264-0.152-0.554-0.271-0.833-0.406c-0.061,0.051-0.127,0.109-0.188,0.163c0.132,0.325,0.218,0.681,0.396,0.982
					c1.021,1.747,2.158,3.436,3.067,5.241c1.686,3.329,2.818,6.833,2.828,10.623c0.011,2.793-0.03,5.585,0.016,8.374
					c0.035,2.214,0.035,4.434,0.325,6.617c0.157,1.213,0.716,2.462,1.386,3.498c1.026,1.574,2.29,3.006,3.504,4.453
					c0.33,0.392,0.904,0.554,1.29,0.904c0.325,0.3,1.686,1.757,2.092,2.229c0.32,0.376,0.691,0.7,1.026,1.066
					c1.233,1.36,0.954,3.193,1.447,4.783c0.609,1.98,1.102,3.996,1.812,5.931c0.767,2.113,1.62,4.195,2.636,6.195
					c0.878,1.727,2.057,3.301,3.031,4.977c0.27,0.467,0.411,1.087,0.391,1.625c-0.03,0.782,0.341,1.503,1.026,1.59
					c2.798,0.33,3.428,1.396,4.108,4.077c0.396,1.564-0.117,3.072-0.686,4.515c-0.102,0.264-0.895,0.573-1.107,0.441
					c-1.514-0.924-3.017-1.879-4.393-2.985c-0.614-0.498-0.858-1.412-1.376-2.062c-0.894-1.116-1.909-2.132-2.803-3.249
					c-0.447-0.564-0.777-1.229-1.062-1.89c-0.67-1.533-1.265-3.087-1.899-4.621c-0.812-1.96-1.681-3.899-2.427-5.88
					c-0.782-2.062-2.062-3.732-3.621-5.256c-0.757-0.736-1.295-1.691-2.036-2.442c-1.844-1.889-3.778-3.682-5.611-5.581
					c-0.944-0.97-1.701-2.107-2.62-3.103c-0.695-0.751-1.438-1.523-2.301-2.052c-1.635-1.005-3.32-1.93-5.067-2.722
					c-1.214-0.554-2.361-1.066-3.229-2.163c-1.442-1.808-2.93-3.585-4.515-5.261c-0.979-1.036-2.554-1.417-3.179,0.457
					c-0.817,2.468-0.822,4.87,0.401,7.211c1.3,2.478,2.6,4.956,3.905,7.435c0.446,0.848,0.319,1.66,0.045,2.544
					c-0.441,1.427-1.822,1.727-2.777,2.544c-1.3,1.127-2.574,2.279-3.864,3.422c-0.64,0.564-1.32,1.107-1.93,1.696
					c-0.69,0.66-1.31,1.392-1.99,2.067c-1.306,1.284-2.564,2.625-3.956,3.813c-1.374,1.178-2.356,2.609-3.189,4.174
					c-0.254,0.478-0.523,0.812-1.097,0.914c-0.749,0.132-1.445,0.903-1.493,1.533c-0.086-0.061-0.175-0.122-0.328-0.229
					c0.013,0.157,0.005,0.233,0.023,0.3c0.01,0.051,0.051,0.092,0.071,0.132c0.307,0.589,0.942,1.249,0.843,1.768
					c-0.218,1.188-0.432,2.458-1.439,3.352c-1.166,1.046-2.321,2.112-3.849,2.579c-1.107,0.335-1.866-0.203-1.851-1.32
					c0.015-1.523,0.025-3.047,0.218-4.56c0.104-0.792,0.562-1.549,0.912-2.296c0.795-1.727,1.445-3.544,2.486-5.103
					c0.965-1.447,2.358-2.61,3.587-3.875c2.417-2.519,4.868-5.007,7.264-7.536c1.417-1.492,1.706-3.29,1.152-5.24
					c-0.254-0.903-3.148-6.348-2.985-6.398c-0.701-1.34-1.412-2.711-2.141-4.123c-0.183,0.143-0.333-0.838-0.65-1.417
					c-0.482-0.883-0.909-1.797-1.335-2.716c-0.241-0.508-0.563-0.604-1.087-0.427c-3.349,1.132-6.771,1.919-10.306,2.143
					c-1.924,0.117-3.854,0.355-5.769,0.254c-2.496-0.137-4.971-0.573-7.462-0.863c-0.83-0.091-1.668-0.147-2.506-0.188
					c-1.237-0.066-2.481-0.117-3.723-0.117c-0.267,0-0.594,0.203-0.779,0.417c-1.551,1.787-0.972,3.768-0.614,5.799
					c0.51,2.895,0.817,5.819,1.19,8.734c0.145,1.127,0,2.351,0.406,3.371c0.587,1.498,0.546,3.006,0.706,4.524
					c0.063,0.574,0.376,1.158,0.713,1.65c1.732,2.504,3.499,4.977,5.269,7.46c0.155,0.218,0.368,0.421,0.597,0.553
					c0.858,0.508,1.206,1.225,1.16,2.215c-0.033,0.67,0.036,1.36,0.17,2.021c0.223,1.087,0.411,1.168,1.518,0.894
					c0.896-0.218,1.577,0.062,1.983,0.849c0.104,0.198,0.125,0.437,0.201,0.649c0.749,1.991,0.464,3.89-0.66,5.627
					c-0.586,0.903-1.465,1.589-2.542,1.914c-0.645,0.193-1.374-0.132-1.498-0.604c-0.302-1.143-0.614-2.279-1.062-3.387
					c0,0.152,0,0.31,0,0.64c-0.109-0.279-0.229-0.427-0.208-0.533c0.282-1.244-0.264-2.168-1.049-3.047
					c-0.322-0.365-0.446-0.898-0.764-1.27c-0.312-0.37-0.818-0.584-1.12-0.959c-0.477-0.609-0.967-1.239-1.251-1.94
					c-1.206-2.985-2.867-5.713-4.598-8.398c-0.343-0.538-0.899-0.935-1.315-1.433c-0.401-0.472-0.779-0.965-1.102-1.492
					c-1.102-1.793-1.488-3.829-1.945-5.851c-0.411-1.803-0.868-3.595-1.414-5.362c-0.625-2.025-1.368-4.017-2.084-6.104
					c-0.932,0.746-7.279,5.794-7.66,6.094c-0.198,0.152-1.985,1.351-2.049,1.27c-0.815,1.178-1.534,2.438-2.48,3.493
					c-0.541,0.609-0.993,1.331-1.742,1.798c-0.904,0.568-1.493,1.452-1.856,2.498c-0.914,2.651-1.93,5.271-2.798,7.933
					c-0.322,0.995-0.269,2.112-0.551,3.138c-0.165,0.589-0.625,1.117-1.003,1.635c-0.427,0.59-1.031,1.082-1.348,1.722
					c-0.368,0.747-0.338,1.63,0.569,2.352c0.627,0.503,0.779,1.076,0.333,1.777c-0.053,0.081-0.069,0.188-0.089,0.284
					c-0.516,2.701-2.44,3.91-4.862,4.57c-0.457,0.121-0.947,0.192-1.419,0.178c-0.898-0.031-1.444-0.604-1.32-1.498
					c0.213-1.585,0.482-3.169,0.854-4.713c0.124-0.527,0.622-0.965,0.944-1.441c0.411-0.604,0.744-1.188,0.812-1.991
					c0.104-1.29,0.442-2.569,0.733-3.844c0.051-0.229,0.711-0.909,0.671-0.939c0.863-1.686,1.726-3.372,2.684-5.24
					c-0.033,0.396,0.16-0.63,0.2-0.747c0.351-0.99,0.744-1.97,1.125-2.95c0.066-0.183,0.186-0.355,0.203-0.543
					c0.086-1.077,0.17-2.158,0.218-3.24c0.041-1.092,0.229-2.122,1.082-2.909c0.056-0.051,0.109-0.112,0.135-0.183
					c0.625-1.879,2.242-2.945,3.488-4.327c1.582-1.736,3.062-3.569,4.598-5.352c1.107-1.285,6.66-9.15,6.457-8.318
					c-1.455-1.848-2.958-3.717-4.425-5.626c-0.988-1.282-1.236-2.801-0.874-4.324c0.5-2.079,0.323-4.108-0.312-6.078
					c-0.764-2.417-1.663-4.789-2.61-7.135c-0.848-2.115-1.831-4.174-2.76-6.256c-0.094-0.2-0.208-0.394-0.353-0.665
					c-0.65,0.665-1.328,1.15-1.622,2.082c-0.437,1.366-1.087,2.666-1.64,3.996c-0.82,1.988-0.79,3.895,0.236,5.85
					c0.8,1.523,0.513,2.336-0.764,3.443c-0.307,0.267-0.594,0.541-0.901,0.807c-1.221,1.072-3.438,1.3-4.903,0.556
					c-1.419-0.729-2.729-1.607-3.864-2.734c-0.125-0.127-0.18-0.396-0.155-0.584c0.114-0.848,0.269-1.693,0.417-2.542
					c0.03-0.198,0.056-0.396,0.114-0.584c0.129-0.431,0.18-0.744-0.224-1.167c-0.262-0.277-0.119-0.947-0.132-1.447
					c-0.005-0.269,0.104-0.546,0.089-0.81c-0.071-1.295-0.175-2.585-0.244-3.875 M138.294,58.503
					c0.076-0.056,0.152-0.109,0.233-0.165c-0.624-0.883-1.254-1.77-1.879-2.653c-0.061,0.048-0.127,0.089-0.192,0.134
					C137.07,56.716,137.685,57.609,138.294,58.503z"/>
			</g>
		</g>
	</g>
</g>
</svg>